<svg xmlns="http://www.w3.org/2000/svg" xmlns:xlink="http://www.w3.org/1999/xlink" id="Слой_1" x="0" y="0" enable-background="new 0 0 121 130" version="1.1" viewBox="0 0 121 130" xml:space="preserve"><g><path fill="none" stroke="#BBDAEC" stroke-miterlimit="10" stroke-width="2" d="M101.9,120.4H19.6c-7.2,0-13-5.8-13-13V22.6 c0-7.2,5.8-13,13-13h82.3c7.2,0,13,5.8,13,13v84.8C114.9,114.6,109.1,120.4,101.9,120.4z"/><path fill="none" stroke="#3B8BC0" stroke-miterlimit="10" stroke-width="2" d="M100.7,113.8H21.3c-4.4,0-8-3.6-8-8V24.3 c0-4.4,3.6-8,8-8h79.4c4.4,0,8,3.6,8,8v81.4C108.7,110.2,105.2,113.8,100.7,113.8z"/><circle cx="33.4" cy="72" r="6.2" fill="none" stroke="#3B8BC0" stroke-miterlimit="10" stroke-width="2"/><circle cx="60.8" cy="37.3" r="6.2" fill="none" stroke="#3B8BC0" stroke-miterlimit="10" stroke-width="2"/><circle cx="88.7" cy="58" r="6.2" fill="none" stroke="#3B8BC0" stroke-miterlimit="10" stroke-width="2"/><line x1="60.8" x2="60.8" y1="51.7" y2="99.1" fill="none" stroke="#86B8DD" stroke-miterlimit="10" stroke-width="2"/><line x1="88.7" x2="88.7" y1="72" y2="99.1" fill="none" stroke="#86B8DD" stroke-miterlimit="10" stroke-width="2"/><line x1="33" x2="33" y1="85.5" y2="99.1" fill="none" stroke="#86B8DD" stroke-miterlimit="10" stroke-width="2"/><line x1="33.4" x2="33.4" y1="31" y2="58" fill="none" stroke="#BBDAEC" stroke-miterlimit="10" stroke-width="2"/><line x1="88.7" x2="88.7" y1="31" y2="44.5" fill="none" stroke="#BBDAEC" stroke-miterlimit="10" stroke-width="2"/></g></svg>