<svg xmlns="http://www.w3.org/2000/svg" xmlns:xlink="http://www.w3.org/1999/xlink" id="Слой_1" x="0" y="0" enable-background="new 0 0 121 130" version="1.1" viewBox="0 0 121 130" xml:space="preserve"><g><path fill="none" stroke="#BBDAEC" stroke-miterlimit="10" stroke-width="2" d="M101.7,120.5H19.3c-7.2,0-13-5.8-13-13V22.6 c0-7.2,5.8-13,13-13h82.3c7.2,0,13,5.8,13,13v84.8C114.7,114.7,108.8,120.5,101.7,120.5z"/><g><circle cx="60.5" cy="63.3" r="10.4" fill="none" stroke="#3B8BC0" stroke-miterlimit="10" stroke-width="2"/><path fill="none" stroke="#3B8BC0" stroke-linecap="round" stroke-linejoin="round" stroke-miterlimit="10" stroke-width="2" d="M39.8,90.1c0,0,20.7-24,41.4,1.7"/></g><circle cx="25.1" cy="25.9" r="2.8" fill="#86B8DD"/><circle cx="32.8" cy="25.9" r="2.8" fill="#86B8DD"/><circle cx="40.6" cy="25.9" r="2.8" fill="#86B8DD"/><line x1="12.4" x2="107.9" y1="35.4" y2="35.4" fill="none" stroke="#3B8BC0" stroke-miterlimit="10" stroke-width="2"/><path fill="none" stroke="#3B8BC0" stroke-miterlimit="10" stroke-width="2" d="M99.9,113.6H21.1c-4.4,0-8-3.6-8-8v-81 c0-4.4,3.6-8,8-8h78.8c4.4,0,8,3.6,8,8v81C107.9,110,104.3,113.6,99.9,113.6z"/></g></svg>
