<svg xmlns="http://www.w3.org/2000/svg" xmlns:xlink="http://www.w3.org/1999/xlink" id="Слой_1" x="0" y="0" enable-background="new 0 0 121 130" version="1.1" viewBox="0 0 121 130" xml:space="preserve"><g><path fill="none" stroke="#86B8DD" stroke-miterlimit="10" stroke-width="2" d="M101.8,41.8"/><path fill="none" stroke="#86B8DD" stroke-miterlimit="10" stroke-width="2" d="M18.6,18.6c-3.9,0-7,3.1-7,7v87.7c0,3.9,3.1,7,7,7 h76.2c3.9,0,7.8-3.7,7-8.2"/><path fill="#FFF" stroke="#86B8DD" stroke-miterlimit="10" stroke-width="2" d="M18.6,18.6"/><path fill="none" stroke="#3B8BC0" stroke-miterlimit="10" stroke-width="2" d="M87.5,9.8H26.2c-3.9,0-7,3.1-7,7v87.7 c0,3.9,3.1,7,7,7h76.2c3.9,0,7-3.1,7-7V33L87.5,9.8z"/><path fill="none" stroke="#3B8BC0" stroke-miterlimit="10" stroke-width="2" d="M87.1,9.8c0,0,0,16.5,0,18.5s1.5,4.6,3.9,4.7 c2.4,0.1,18.3,0,18.3,0"/><circle cx="41.3" cy="43.9" r="4.4" fill="none" stroke="#3B8BC0" stroke-miterlimit="10" stroke-width="2"/><circle cx="41.3" cy="58.7" r="4.4" fill="none" stroke="#3B8BC0" stroke-miterlimit="10" stroke-width="2"/><circle cx="41.3" cy="73.4" r="4.4" fill="none" stroke="#3B8BC0" stroke-miterlimit="10" stroke-width="2"/><line x1="81" x2="58.2" y1="43.9" y2="43.9" fill="none" stroke="#BBDAEC" stroke-miterlimit="10" stroke-width="2"/><line x1="81" x2="58.2" y1="58.7" y2="58.7" fill="none" stroke="#BBDAEC" stroke-miterlimit="10" stroke-width="2"/><polyline fill="none" stroke="#3B8BC0" stroke-miterlimit="10" stroke-width="2" points="60 81.6 70.9 93.9 97.3 69.4"/></g></svg>
