<svg xmlns="http://www.w3.org/2000/svg" xmlns:xlink="http://www.w3.org/1999/xlink" id="Слой_1" x="0" y="0" enable-background="new 0 0 121 130" version="1.1" viewBox="0 0 121 130" xml:space="preserve"><g><path fill="none" stroke="#BBDAEC" stroke-miterlimit="10" stroke-width="2" d="M101.7,120.4H19.3c-7.2,0-13-5.8-13-13V22.6 c0-7.2,5.8-13,13-13h82.3c7.2,0,13,5.8,13,13v84.8C114.7,114.6,108.8,120.4,101.7,120.4z"/><path fill="none" stroke="#3B8BC0" stroke-miterlimit="10" stroke-width="2" d="M100.5,113.7H21c-4.4,0-8-3.6-8-8V24.3 c0-4.4,3.6-8,8-8h79.4c4.4,0,8,3.6,8,8v81.4C108.5,110.2,104.9,113.7,100.5,113.7z"/><line x1="60.8" x2="60.8" y1="24.3" y2="105.8" fill="none" stroke="#86B8DD" stroke-miterlimit="10" stroke-width="2"/><line x1="100.7" x2="21" y1="65" y2="65" fill="none" stroke="#86B8DD" stroke-miterlimit="10" stroke-width="2"/><g><g><line x1="29.3" x2="48.1" y1="42.9" y2="42.9" fill="none" stroke="#86B8DD" stroke-miterlimit="10" stroke-width="2"/><line x1="38.7" x2="38.7" y1="52.3" y2="33.5" fill="none" stroke="#86B8DD" stroke-miterlimit="10" stroke-width="2"/></g></g><g><g><line x1="32" x2="45.3" y1="93.8" y2="80.5" fill="none" stroke="#86B8DD" stroke-miterlimit="10" stroke-width="2"/><line x1="45.3" x2="32" y1="93.8" y2="80.5" fill="none" stroke="#86B8DD" stroke-miterlimit="10" stroke-width="2"/></g></g><line x1="74.2" x2="93" y1="42.9" y2="42.9" fill="none" stroke="#86B8DD" stroke-miterlimit="10" stroke-width="2"/><g><g><line x1="74.9" x2="93.8" y1="83.9" y2="83.9" fill="none" stroke="#3B8BC0" stroke-miterlimit="10" stroke-width="2"/><line x1="74.9" x2="93.8" y1="90.4" y2="90.4" fill="none" stroke="#3B8BC0" stroke-miterlimit="10" stroke-width="2"/></g></g></g></svg>